<svg width="203" height="203" viewBox="0 0 203 203" fill="none" xmlns="http://www.w3.org/2000/svg">
<g clip-path="url(#clip0)">
<path d="M198.678 156.889L152.249 110.461C143.091 101.302 129.412 99.5176 118.39 104.949L76.1243 62.6842V38.0625L25.3743 0L-0.000683896 25.375L38.0618 76.125H62.6835L104.949 118.39C99.5565 129.413 101.301 143.091 110.46 152.25L156.888 198.678C162.677 204.467 172.034 204.467 177.783 198.678L198.678 177.784C204.427 171.995 204.427 162.638 198.678 156.889ZM131.513 89.209C142.734 89.209 153.28 93.5703 161.21 101.5L168.902 109.192C175.166 106.456 181.113 102.65 186.268 97.4955C200.977 82.7859 205.973 62.0895 201.294 43.2961C200.422 39.7277 195.942 38.4986 193.325 41.1154L163.827 70.6139L136.905 66.1336L132.425 39.2123L161.924 9.71387C164.54 7.09707 163.272 2.6168 159.664 1.70488C140.87 -2.93398 120.174 2.06172 105.504 16.7316C94.204 28.0314 88.8911 42.9393 89.1686 57.8074L121.72 90.3588C124.932 89.6055 128.262 89.209 131.513 89.209ZM90.3185 121.721L67.8378 99.24L7.41357 159.704C-2.49854 169.616 -2.49854 185.674 7.41357 195.586C17.3257 205.498 33.3833 205.498 43.2954 195.586L92.3009 146.58C89.2876 138.69 88.3757 130.087 90.3185 121.721ZM25.3743 187.141C20.1407 187.141 15.8587 182.859 15.8587 177.625C15.8587 172.352 20.1011 168.109 25.3743 168.109C30.6476 168.109 34.8899 172.352 34.8899 177.625C34.8899 182.859 30.6476 187.141 25.3743 187.141Z" fill="#2B2EF0"/>
</g>
<defs>
<clipPath id="clip0">
<rect width="203" height="203" fill="white"/>
</clipPath>
</defs>
</svg>
