<svg width="43" height="43" viewBox="0 0 43 43" fill="none" xmlns="http://www.w3.org/2000/svg">
<path d="M21.5 0.671875C9.99691 0.671875 0.671875 9.99691 0.671875 21.5C0.671875 33.0031 9.99691 42.3281 21.5 42.3281C33.0031 42.3281 42.3281 33.0031 42.3281 21.5C42.3281 9.99691 33.0031 0.671875 21.5 0.671875ZM21.5 38.2969C12.217 38.2969 4.70312 30.7844 4.70312 21.5C4.70312 12.2171 12.2156 4.70312 21.5 4.70312C30.783 4.70312 38.2969 12.2156 38.2969 21.5C38.2969 30.783 30.7844 38.2969 21.5 38.2969ZM30.5158 29.8091C29.7084 30.6247 26.692 33.2857 21.776 33.2857C14.8531 33.2857 9.97751 28.127 9.97751 21.3963C9.97751 14.7487 15.0397 9.68877 21.7153 9.68877C26.3791 9.68877 29.1679 11.9244 29.9116 12.6097C30.0864 12.7704 30.1986 12.9878 30.2283 13.2233C30.2581 13.4589 30.2035 13.6973 30.0742 13.8965L28.5495 16.2575C28.2269 16.7572 27.5445 16.8691 27.0798 16.5028C26.358 15.9338 24.408 14.61 21.8973 14.61C17.8406 14.61 15.3536 17.5772 15.3536 21.3356C15.3536 24.8285 17.6118 28.3645 21.9276 28.3645C24.6703 28.3645 26.7016 26.7655 27.4476 26.078C27.8902 25.6701 28.5895 25.7388 28.9442 26.224L30.6126 28.5058C30.7548 28.6988 30.8232 28.9363 30.8055 29.1754C30.7877 29.4144 30.685 29.6392 30.5158 29.8091Z" fill="white"/>
</svg>
