<svg width="216" height="199" viewBox="0 0 216 199" fill="none" xmlns="http://www.w3.org/2000/svg">
<path d="M126 174.125H6C2.685 174.125 0 176.908 0 180.344V192.781C0 196.217 2.685 199 6 199H126C129.315 199 132 196.217 132 192.781V180.344C132 176.908 129.315 174.125 126 174.125ZM204 49.75V31.0938C204 27.6579 201.315 24.875 198 24.875C194.685 24.875 192 27.6579 192 31.0938V49.75H180V31.0938C180 27.6579 177.315 24.875 174 24.875C170.685 24.875 168 27.6579 168 31.0938V49.75H162C158.685 49.75 156 52.5329 156 55.9688V68.4062C156 82.3052 164.857 93.9381 177 97.9181V143.972C177 149.394 173.438 154.435 168.277 155.317C161.707 156.44 156 151.189 156 144.586V133.703C156 114.814 141.225 99.5 123 99.5H120V24.875C120 11.1354 109.256 0 96 0H36C22.7438 0 12 11.1354 12 24.875V161.688H120V118.156H123C131.284 118.156 138 125.117 138 133.703V143.268C138 158.687 148.845 172.481 163.654 173.977C180.641 175.699 195 161.847 195 144.586V97.9181C207.143 93.9381 216 82.3052 216 68.4062V55.9688C216 52.5329 213.315 49.75 210 49.75H204ZM97.5338 68.313L62.3962 122.338C61.5713 123.633 60.0675 124.375 58.5 124.375C55.6237 124.375 53.4487 121.934 54.1237 119.353L62.7563 87.0625H40.5C37.7812 87.0625 35.6813 84.8898 36.0413 82.4412L42.0413 40.8533C42.3375 38.8283 44.2425 37.3125 46.5 37.3125H72C74.955 37.3125 77.1075 39.8544 76.35 42.4469L72 62.1875H93.6375C97.1025 62.1875 99.2663 65.6 97.5338 68.313Z" fill="#2B2EF0"/>
</svg>
