<svg width="171" height="172" viewBox="0 0 171 172" fill="none" xmlns="http://www.w3.org/2000/svg">
<g clip-path="url(#clip0)">
<path d="M152.634 115.704C144.268 122.533 135.057 128.194 125.067 132.181L143.229 163.823L161.248 171.563C164.524 172.971 168.225 170.821 168.652 167.263L170.997 147.695L152.634 115.704ZM166.825 83.9373C168.448 81.3607 167.456 77.8938 164.805 76.4157L155.43 71.1852C152.931 69.791 149.882 70.6947 148.329 73.1067C134.599 94.4488 110.966 107.5 85.5 107.5C77.5078 107.5 69.7259 106.072 62.3181 103.627L84.8153 64.4295C85.0491 64.4362 85.2629 64.5 85.4967 64.5C85.7305 64.5 85.9475 64.4362 86.178 64.4295L103.241 94.1599C113.672 91.1499 123.133 85.5095 130.832 77.7259L113.535 47.5889C116.023 43.0101 117.562 37.8366 117.562 32.25C117.562 14.4386 103.208 0 85.5 0C67.7921 0 53.4375 14.4386 53.4375 32.25C53.4375 37.8366 54.9772 43.0101 57.462 47.5889L34.6509 87.3337C30.4594 83.4334 26.6486 79.073 23.4023 74.2321C21.8025 71.847 18.7365 71.0004 16.2617 72.4416L6.99363 77.8401C4.37186 79.3652 3.44338 82.8455 5.10996 85.3886C10.3101 93.3302 16.6959 100.24 23.8064 106.223L0 147.698L2.34457 167.267C2.77207 170.824 6.47262 172.974 9.749 171.567L27.7675 163.827L51.4136 122.631C62.1645 126.743 73.6836 129 85.5 129C118.581 129 149.251 111.864 166.825 83.9373ZM85.5 21.5C91.4015 21.5 96.1875 26.314 96.1875 32.25C96.1875 38.186 91.4015 43 85.5 43C79.5985 43 74.8125 38.186 74.8125 32.25C74.8125 26.314 79.5985 21.5 85.5 21.5Z" fill="#2B2EF0"/>
</g>
<defs>
<clipPath id="clip0">
<rect width="171" height="172" fill="white"/>
</clipPath>
</defs>
</svg>
