<svg width="132" height="156" viewBox="0 0 132 156" fill="none" xmlns="http://www.w3.org/2000/svg">
<path d="M107.25 39V9.75C107.25 4.36617 103.556 0 99 0H8.25C3.69445 0 0 4.36617 0 9.75V39C0 44.3838 3.69445 48.75 8.25 48.75H99C103.556 48.75 107.25 44.3838 107.25 39ZM115.5 19.5V58.5C115.5 63.8838 111.806 68.25 107.25 68.25H66C56.8863 68.25 49.5 76.9793 49.5 87.75V97.5C44.9445 97.5 41.25 101.866 41.25 107.25V146.25C41.25 151.634 44.9445 156 49.5 156H66C70.5555 156 74.25 151.634 74.25 146.25V107.25C74.25 101.866 70.5555 97.5 66 97.5V87.75H107.25C120.919 87.75 132 74.6545 132 58.5V39C132 28.2293 124.614 19.5 115.5 19.5Z" fill="#2B2EF0"/>
</svg>
