<svg width="158" height="211" viewBox="0 0 158 211" fill="none" xmlns="http://www.w3.org/2000/svg">
<path d="M151.417 19.7812C155.038 19.7812 158 16.8141 158 13.1875V6.59375C158 2.96719 155.038 0 151.417 0H6.58333C2.9625 0 0 2.96719 0 6.59375V13.1875C0 16.8141 2.9625 19.7812 6.58333 19.7812H13.1667V84.3588C4.85521 88.5211 0 93.5076 0 98.9062C0 126.6 14.2365 150.914 35.7146 165.05L26.9094 193.98C24.3172 202.428 30.6536 211 39.5 211H118.5C127.346 211 133.683 202.428 131.091 193.98L122.285 165.05C143.764 150.914 158 126.6 158 98.9062C158 93.5076 153.145 88.5211 144.833 84.3588V19.7812H151.417ZM32.9167 29.6719C32.9167 27.8586 34.3979 26.375 36.2083 26.375H55.9583C57.7688 26.375 59.25 27.8586 59.25 29.6719V36.2656C59.25 38.0789 57.7688 39.5625 55.9583 39.5625H36.2083C34.3979 39.5625 32.9167 38.0789 32.9167 36.2656V29.6719ZM79 112.094C47.2766 112.094 21.5604 106.201 21.5604 98.9062C21.5604 91.6119 47.2766 85.7188 79 85.7188C110.723 85.7188 136.44 91.6119 136.44 98.9062C136.44 106.201 110.723 112.094 79 112.094Z" fill="#2B2EF0"/>
</svg>
