<svg width="174" height="172" viewBox="0 0 174 172" fill="none" xmlns="http://www.w3.org/2000/svg">
<g clip-path="url(#clip0)">
<path d="M4.21724 49.725L83.3805 85.2236C85.6914 86.2616 88.3048 86.2616 90.6157 85.2236L169.779 49.725C175.403 47.2022 175.403 38.8004 169.779 36.2775L90.6191 0.775594C89.4837 0.262586 88.2499 -0.00292969 87.0015 -0.00292969C85.7531 -0.00292969 84.5193 0.262586 83.3839 0.775594L4.21724 36.2741C-1.40717 38.797 -1.40717 47.2022 4.21724 49.725ZM169.782 79.3816L150.041 70.5364L95.1085 95.1505C92.5392 96.3028 89.8103 96.8873 86.9998 96.8873C84.1893 96.8873 81.4637 96.3028 78.8911 95.1505L23.9622 70.5364L4.21724 79.3816C-1.40717 81.9011 -1.40717 90.2996 4.21724 92.8191L83.3805 128.291C85.6914 129.325 88.3048 129.325 90.6157 128.291L169.782 92.8191C175.407 90.2996 175.407 81.9011 169.782 79.3816ZM169.782 122.314L150.116 113.503L95.1085 138.15C92.5392 139.303 89.8103 139.887 86.9998 139.887C84.1893 139.887 81.4637 139.303 78.8911 138.15L23.8874 113.503L4.21724 122.314C-1.40717 124.834 -1.40717 133.232 4.21724 135.752L83.3805 171.224C85.6914 172.258 88.3048 172.258 90.6157 171.224L169.782 135.752C175.407 133.232 175.407 124.834 169.782 122.314Z" fill="#2B2EF0"/>
</g>
<defs>
<clipPath id="clip0">
<rect width="174" height="172" fill="white"/>
</clipPath>
</defs>
</svg>
